<?xml version="1.0" encoding="UTF-8"?>
<svg xmlns="http://www.w3.org/2000/svg" viewBox="0 0 1360 360">
  <style>.box{fill:#fff;stroke:#111;stroke-width:1.8}.label{font:16px sans-serif}.small{font:13px sans-serif;fill:#333}</style>
  <rect x="20" y="60" width="180" height="90" class="box"/><text x="30" y="95" class="label">Sources</text><text x="30" y="120" class="small">SCADA/PMU/Markets</text>
  <rect x="220" y="60" width="200" height="90" class="box"/><text x="230" y="95" class="label">Normalization</text><text x="230" y="120" class="small">RGPD/Data Act</text>
  <rect x="440" y="60" width="200" height="90" class="box"/><text x="450" y="95" class="label">ZDM</text><text x="450" y="120" class="small">HardCore↔Resonant</text>
  <rect x="660" y="60" width="160" height="90" class="box"/><text x="670" y="105" class="label">ΔM11.3</text>
  <rect x="840" y="60" width="200" height="90" class="box"/><text x="850" y="95" class="label">PolyResonator</text><text x="850" y="120" class="small">UCB1+EMA/OPF</text>
  <rect x="1060" y="60" width="140" height="90" class="box"/><text x="1070" y="95" class="label">Services</text><text x="1070" y="120" class="small">Forecast/UC-ED/DR</text>
  <rect x="1220" y="60" width="120" height="90" class="box"/><text x="1230" y="95" class="label">Compliance</text><text x="1230" y="120" class="small">AIAct/ISO/NIS2/…</text>
  <line x1="200" y1="105" x2="220" y2="105" stroke="#111" stroke-width="2"/>
  <line x1="420" y1="105" x2="440" y2="105" stroke="#111" stroke-width="2"/>
  <line x1="640" y1="105" x2="660" y2="105" stroke="#111" stroke-width="2"/>
  <line x1="820" y1="105" x2="840" y2="105" stroke="#111" stroke-width="2"/>
  <line x1="1040" y1="105" x2="1060" y2="105" stroke="#111" stroke-width="2"/>
  <line x1="1200" y1="105" x2="1220" y2="105" stroke="#111" stroke-width="2"/>
</svg>
